<mxfile host="app.diagrams.net" modified="2022-02-08T08:37:39.574Z" agent="5.0 (Windows NT 10.0; Win64; x64) AppleWebKit/537.36 (KHTML, like Gecko) Chrome/97.0.4692.99 Safari/537.36" etag="Zx4z7VYXaZ2oix0-CX-c" version="16.5.3" type="github">
  <diagram id="bjjtngLLK6Jo-6JO_wV9" name="Page-1">
    <mxGraphModel dx="918" dy="601" grid="1" gridSize="10" guides="1" tooltips="1" connect="1" arrows="1" fold="1" page="1" pageScale="1" pageWidth="827" pageHeight="1169" math="0" shadow="0">
      <root>
        <mxCell id="0" />
        <mxCell id="1" parent="0" />
        <mxCell id="Awl9hmbDRTmn5jdmw-Za-1" value="internal.c" style="shape=umlLifeline;perimeter=lifelinePerimeter;whiteSpace=wrap;html=1;container=1;collapsible=0;recursiveResize=0;outlineConnect=0;" vertex="1" parent="1">
          <mxGeometry x="140" y="10" width="100" height="530" as="geometry" />
        </mxCell>
        <mxCell id="Awl9hmbDRTmn5jdmw-Za-4" value="" style="html=1;points=[];perimeter=orthogonalPerimeter;" vertex="1" parent="Awl9hmbDRTmn5jdmw-Za-1">
          <mxGeometry x="45" y="80" width="10" height="80" as="geometry" />
        </mxCell>
        <mxCell id="Awl9hmbDRTmn5jdmw-Za-5" value="dispatch" style="html=1;verticalAlign=bottom;startArrow=oval;endArrow=block;startSize=8;rounded=0;" edge="1" target="Awl9hmbDRTmn5jdmw-Za-4" parent="Awl9hmbDRTmn5jdmw-Za-1">
          <mxGeometry relative="1" as="geometry">
            <mxPoint x="-15" y="80" as="sourcePoint" />
          </mxGeometry>
        </mxCell>
        <mxCell id="Awl9hmbDRTmn5jdmw-Za-6" value="dispatch" style="html=1;verticalAlign=bottom;endArrow=block;rounded=0;" edge="1" parent="Awl9hmbDRTmn5jdmw-Za-1" target="Awl9hmbDRTmn5jdmw-Za-2">
          <mxGeometry width="80" relative="1" as="geometry">
            <mxPoint x="50" y="90" as="sourcePoint" />
            <mxPoint x="130" y="90" as="targetPoint" />
          </mxGeometry>
        </mxCell>
        <mxCell id="Awl9hmbDRTmn5jdmw-Za-2" value="ecc.c" style="shape=umlLifeline;perimeter=lifelinePerimeter;whiteSpace=wrap;html=1;container=1;collapsible=0;recursiveResize=0;outlineConnect=0;" vertex="1" parent="1">
          <mxGeometry x="290" y="10" width="100" height="530" as="geometry" />
        </mxCell>
        <mxCell id="Awl9hmbDRTmn5jdmw-Za-7" value="" style="html=1;points=[];perimeter=orthogonalPerimeter;" vertex="1" parent="Awl9hmbDRTmn5jdmw-Za-2">
          <mxGeometry x="45" y="90" width="10" height="80" as="geometry" />
        </mxCell>
        <mxCell id="Awl9hmbDRTmn5jdmw-Za-3" value=":Object" style="shape=umlLifeline;perimeter=lifelinePerimeter;whiteSpace=wrap;html=1;container=1;collapsible=0;recursiveResize=0;outlineConnect=0;" vertex="1" parent="1">
          <mxGeometry x="430" y="10" width="100" height="300" as="geometry" />
        </mxCell>
      </root>
    </mxGraphModel>
  </diagram>
</mxfile>
